<?xml version="1.0" encoding="UTF-8" standalone="no"?>
<!-- Created with Inkscape (http://www.inkscape.org/) -->

<svg
   width="256"
   height="256"
   viewBox="0 0 67.733332 67.733333"
   version="1.1"
   id="svg5"
   xml:space="preserve"
   inkscape:version="1.2.2 (b0a8486541, 2022-12-01)"
   sodipodi:docname="end.svg"
   xmlns:inkscape="http://www.inkscape.org/namespaces/inkscape"
   xmlns:sodipodi="http://sodipodi.sourceforge.net/DTD/sodipodi-0.dtd"
   xmlns:xlink="http://www.w3.org/1999/xlink"
   xmlns="http://www.w3.org/2000/svg"
   xmlns:svg="http://www.w3.org/2000/svg"><sodipodi:namedview
     id="namedview7"
     pagecolor="#f40000"
     bordercolor="#000000"
     borderopacity="0.25"
     inkscape:showpageshadow="2"
     inkscape:pageopacity="0"
     inkscape:pagecheckerboard="0"
     inkscape:deskcolor="#d1d1d1"
     inkscape:document-units="px"
     showgrid="false"
     inkscape:zoom="1.4142136"
     inkscape:cx="-39.244426"
     inkscape:cy="81.31728"
     inkscape:window-width="2560"
     inkscape:window-height="1348"
     inkscape:window-x="0"
     inkscape:window-y="0"
     inkscape:window-maximized="1"
     inkscape:current-layer="layer1" /><defs
     id="defs2"><linearGradient
       inkscape:collect="always"
       id="linearGradient12134"><stop
         style="stop-color:#00b200;stop-opacity:1;"
         offset="0"
         id="stop12130" /><stop
         style="stop-color:#006600;stop-opacity:1;"
         offset="1"
         id="stop12132" /></linearGradient><radialGradient
       inkscape:collect="always"
       xlink:href="#linearGradient12134"
       id="radialGradient12136"
       cx="33.866669"
       cy="33.866665"
       fx="33.866669"
       fy="33.866665"
       r="33.866668"
       gradientUnits="userSpaceOnUse"
       gradientTransform="translate(0)" /></defs><g
     inkscape:label="Layer 1"
     inkscape:groupmode="layer"
     id="layer1"><ellipse
       style="opacity:1;fill:url(#radialGradient12136);fill-opacity:1;stroke:#ffffff;stroke-width:2.6458333;stroke-linecap:round;stroke-linejoin:bevel;stroke-dasharray:none;stroke-opacity:1;paint-order:normal"
       id="path2240"
       cx="33.866669"
       cy="33.866665"
       rx="32.543743"
       ry="32.543739" /><path
       style="fill:#ffffff;fill-opacity:1;stroke:none;stroke-width:2.64583;stroke-linecap:round;stroke-linejoin:round;stroke-dasharray:none;stroke-opacity:1"
       d="m 21.622981,21.139244 1.78481,2.243973"
       id="path4107" /><path
       style="fill:#ffffff;fill-opacity:1;stroke:none;stroke-width:2.64583;stroke-linecap:round;stroke-linejoin:round;stroke-dasharray:none;stroke-opacity:1"
       d="m 24.537882,25.170255 2.785228,-3.90192"
       id="path4109" /><path
       style="fill:#ffffff;fill-opacity:1;stroke:none;stroke-width:2.64583;stroke-linecap:round;stroke-linejoin:round;stroke-dasharray:none;stroke-opacity:1"
       d="m 23.788169,22.770246 15.49079,6.556578"
       id="path4111" /><path
       style="fill:none;stroke-width:2.64583;stroke-linecap:round;stroke-linejoin:round"
       d="m 23.469877,48.342832 c -0.978158,-9.427395 -1.456761,-19.271609 6.040975,-26.280363 1.234591,-1.154074 2.974583,-2.447713 4.664541,-2.829317 5.888953,-1.329764 10.258533,6.814057 10.781979,11.699597 0.226298,2.112113 -0.38233,3.85326 -0.38233,5.885582"
       id="path1804" /><g
       id="g2321"
       transform="matrix(0.15916341,0,0,0.15889489,12.168281,6.1530258)"><rect
         width="256"
         height="256"
         fill="none"
         id="rect2309"
         x="0"
         y="0" /><path
         d="M 234.0857,57.421727 C 231.22534,56.1307 227.87012,56.617721 225.5006,58.667879 197.41848,82.813326 173.62892,71.109464 146.05829,57.541358 117.49477,43.474791 85.110061,27.553949 48.984424,58.667879 v 0 c -1.746245,1.504557 -2.755055,3.684479 -2.768095,5.981531 v 230.43197 c 0,4.40468 3.592227,7.97536 8.023462,7.97536 4.431236,0 8.023462,-3.57068 8.023462,-7.97536 V 188.03842 c 26.868568,-21.09486 50.016267,-9.71998 76.674217,3.39951 16.4481,8.08503 34.15989,16.79813 53.15544,16.79813 13.97085,0 28.6237,-4.73538 43.94851,-17.94459 1.74625,-1.50456 2.75506,-3.68449 2.76809,-5.98153 V 64.64941 c -0.0165,-3.12034 -1.86234,-5.944468 -4.72381,-7.227683 z M 62.263253,168.76793 v -50.40437 c 16.899417,-11.24528 32.735725,-11.55433 48.140787,-7.31741 v 51.58074 c -15.174388,-3.79828 -31.221312,-3.55901 -48.140787,6.14104 z M 110.40404,59.535201 c 9.27712,2.821289 18.66457,7.427068 28.53343,12.282077 11.29302,5.552855 23.17778,11.394817 35.65426,14.515182 v 51.58073 c 15.39502,4.23692 31.23133,3.92788 48.14077,-7.32737 v 49.95575 c -16.91947,13.279 -32.36464,13.67777 -48.14077,8.88258 v -51.51096 c -21.6834,-5.98153 -42.50429,-20.93535 -64.18769,-26.86704 z"
         id="path2311"
         sodipodi:nodetypes="cccsscsssccsccccccccccccccccccc"
         style="fill:#ffffff;fill-opacity:1;stroke:none;stroke-width:0.999927;stroke-opacity:1" /></g></g></svg>
