# Blender 5.0.1
# www.blender.org
o Crystal
v -1.500000 -0.100000 1.000000
v -1.500000 -0.100000 1.000000
v -1.500000 -0.100000 1.000000
v -1.500000 -0.100000 1.000000
v 1.500000 -0.100000 1.000000
v 1.500000 -0.100000 1.000000
v 1.500000 -0.100000 1.000000
v 1.500000 -0.100000 1.000000
v -1.500000 -0.100000 -1.000000
v -1.500000 -0.100000 -1.000000
v -1.500000 -0.100000 -1.000000
v -1.500000 -0.100000 -1.000000
v 1.500000 -0.100000 -1.000000
v 1.500000 -0.100000 -1.000000
v 1.500000 -0.100000 -1.000000
v 1.500000 -0.100000 -1.000000
v 0.000000 2.900000 0.000000
v 0.000000 2.900000 0.000000
v 0.000000 2.900000 0.000000
v 0.000000 2.900000 0.000000
v 0.000000 -3.100000 0.000000
v 0.000000 -3.100000 0.000000
v 0.000000 -3.100000 0.000000
v 0.000000 -3.100000 0.000000
vn -0.0000 0.3162 -0.9487
vn 0.8944 0.4472 -0.0000
vn -0.0000 0.3162 0.9487
vn -0.8944 0.4472 -0.0000
vn -0.8944 -0.4472 -0.0000
vn -0.0000 -0.3162 0.9487
vn 0.8944 -0.4472 -0.0000
vn -0.0000 -0.3162 -0.9487
vt 0.000000 0.000000
s 0
f 13/1/1 9/1/1 18/1/1
f 15/1/2 19/1/2 7/1/2
f 5/1/3 17/1/3 1/1/3
f 20/1/4 11/1/4 3/1/4
f 12/1/5 24/1/5 4/1/5
f 21/1/6 6/1/6 2/1/6
f 23/1/7 16/1/7 8/1/7
f 14/1/8 22/1/8 10/1/8
